# xmcd
#
# Track frame offsets: 
#        150
#        22905
#        52937
#        76334
#        98853
#        122473
#        143918
#        162514
#        184444
#        211557
#        229254
#        258092
#        291544
#
# Disc length: 4283 seconds
#
# Revision: 0
# Processed by: cddbd v1.5.1PL2 Copyright (c) Steve Scherf et al.
# Submitted via: ExactAudioCopy v0.95b2
#
DISCID=ae10b90d
DTITLE=Tamtrum - Some Atomik Songz
DYEAR=2005
DGENRE=Industrial
TTITLE0=In Blood We Trust
TTITLE1=Tantrum
TTITLE2=My Vile Venom
TTITLE3=Datura Dream
TTITLE4=Somewhere in Times
TTITLE5=Extazy
TTITLE6=G.O.O.M: W/M
TTITLE7=Atomik Suicide
TTITLE8=Psycologicalaxative
TTITLE9=X-Track
TTITLE10=Datura Dream (HIV+ Remix)
TTITLE11=Le Son de la Pluie ("Fils De Pute" Remix by Grendel)
TTITLE12=Videoclip - My Vile Venom
EXTD=
EXTT0=
EXTT1=
EXTT2=
EXTT3=
EXTT4=
EXTT5=
EXTT6=
EXTT7=
EXTT8=
EXTT9=
EXTT10=
EXTT11=
EXTT12=
PLAYORDER=
